<svg xmlns="http://www.w3.org/2000/svg" viewBox="0 0 24 24" fill="#2496ED">
  <path d="M13.983 11.078h2.119a.186.186 0 00.186-.185V9.006a.186.186 0 00-.186-.186h-2.119a.185.185 0 00-.185.185v1.888c0 .102.083.185.185.185m-2.954-5.43h2.118a.186.186 0 00.186-.186V3.574a.186.186 0 00-.186-.185h-2.118a.185.185 0 00-.185.185v1.888c0 .102.082.185.185.185m0 2.716h2.118a.187.187 0 00.186-.186V6.29a.186.186 0 00-.186-.185h-2.118a.185.185 0 00-.185.185v1.887c0 .102.082.185.185.186m-2.93 0h2.12a.186.186 0 00.184-.186V6.29a.185.185 0 00-.185-.185H8.1a.185.185 0 00-.185.185v1.887c0 .102.083.185.185.186m-2.964 0h2.119a.186.186 0 00.185-.186V6.29a.185.185 0 00-.185-.185H5.136a.186.186 0 00-.186.185v1.887c0 .102.084.185.186.186m5.893 2.715h2.118a.186.186 0 00.186-.185V9.006a.186.186 0 00-.186-.186h-2.118a.185.185 0 00-.185.185v1.888c0 .102.082.185.185.185m-2.93 0h2.12a.185.185 0 00.184-.185V9.006a.185.185 0 00-.184-.186h-2.12a.185.185 0 00-.184.185v1.888c0 .102.083.185.185.185m-2.964 0h2.119a.185.185 0 00.185-.185V9.006a.185.185 0 00-.184-.186h-2.12a.186.186 0 00-.186.186v1.887c0 .102.084.185.186.185m-2.92 0h2.12a.185.185 0 00.184-.185V9.006a.185.185 0 00-.184-.186h-2.12a.185.185 0 00-.184.185v1.888c0 .102.082.185.185.185M23.763 9.89c-.065-.051-.672-.51-1.954-.51-.338 0-.676.03-1.01.09-.548-1.06-1.36-1.59-2.43-1.59h-.08c-.447 0-.88.12-1.283.36-.397.24-.71.58-.922 1.01-.33.66-.33 1.44-.01 2.1.32.66.89 1.14 1.6 1.34.5.14 1.01.16 1.51.06.54-.1 1.04-.34 1.44-.7.08.05.17.1.25.14.54.24 1.13.36 1.73.36.57 0 1.14-.12 1.66-.36.41-.19.76-.48 1.02-.85.26-.37.4-.79.4-1.23 0-.31-.07-.61-.21-.89-.13-.28-.33-.52-.57-.7zM21.4 11.54c-.21.16-.48.24-.75.24-.16 0-.32-.03-.47-.09-.12-.05-.24-.12-.34-.21-.1-.09-.19-.2-.26-.32-.07-.12-.12-.25-.15-.39-.03-.14-.03-.28 0-.42.03-.14.08-.27.15-.39.07-.12.16-.23.26-.32.1-.09.22-.16.34-.21.12-.05.24-.08.37-.09.13 0 .26.02.39.06.13.04.25.1.36.18.11.08.21.18.29.29.08.11.14.24.18.37.04.13.06.27.06.41 0 .19-.04.38-.13.55-.09.17-.23.31-.41.43z"/>
</svg>
