<svg xmlns="http://www.w3.org/2000/svg" viewBox="0 0 24 24" fill="#326CE5">
  <path d="M10.204 14.35l.007.01-.999 2.413a5.171 5.171 0 0 1-2.075-2.597l2.578-.437.019.011a.643.643 0 0 0 .47.6zm-.847-2.674l.007-.011L7.585 9.7a5.143 5.143 0 0 0-.305 3.248l2.076-.362-.013-.012a.644.644 0 0 1 .014-.898zm3.193 2.105l-.012-.011-2.334.407a5.145 5.145 0 0 0 2.255 2.64l.591-2.416v-.02a.643.643 0 0 0-.5-.6zm.847-2.105a.644.644 0 0 1 .014.898l-.012.012 2.076.362a5.144 5.144 0 0 0-.305-3.248l-1.779 1.965.006.011zm1.428 1.041l.018-.011 2.578.437a5.17 5.17 0 0 1-2.075 2.597l-.999-2.413.007-.01a.643.643 0 0 0 .471-.6zm-5.924 2.534a5.143 5.143 0 0 0 3.098.003l-1.55-1.618-1.548 1.615zm.967-3.622l.008.01 1.55-1.618 1.548 1.618.008-.01a.644.644 0 0 0 .85 0l.005-.01.012.013 2.334-.407a5.144 5.144 0 0 0-.877-2.996l-1.779 1.965-.006.011a.645.645 0 0 0-.427-.248l.002-.01-.591-2.416a5.142 5.142 0 0 0-3.116 0l-.591 2.416.002.01a.645.645 0 0 0-.427.248l-.007-.011L8.385 9.7a5.144 5.144 0 0 0-.877 2.996l2.334.407.012-.013.005.01a.645.645 0 0 0 .85 0zM12 24c6.627 0 12-5.373 12-12S18.627 0 12 0 0 5.373 0 12s5.373 12 12 12z"/>
</svg>
