<svg xmlns="http://www.w3.org/2000/svg" viewBox="0 0 24 24" fill="#4169E1">
  <path d="M23.5593 14.248a.5.5 0 0 0-.0437-.2123l-.7654-1.7405c-.0847-.1927-.2768-.3162-.4864-.3162s-.4017.1235-.4864.3162l-.7654 1.7405a.5001.5 0 0 0 .0452.5042l1.043 1.3043a.5.5 0 0 0 .778 0l1.0431-1.3043a.5001.5 0 0 0 .0896-.2922zM10.9907 0a10.0053 10.0053 0 0 0-7.073 2.9236C1.4713 5.37.1783 8.2966 0 11.4306v.1393C0 18.0195 4.8884 23.1 10.9907 23.1s10.9907-5.0805 10.9907-11.5301v-.1393C21.9814 4.9805 17.093 0 10.9907 0zm7.9566 11.4306c0 4.893-3.5702 8.8737-7.9566 8.8737S3.0342 16.3236 3.0342 11.4306v-.1393c.1489-2.4798 1.2224-4.8245 3.0224-6.6005a7.9722 7.9722 0 0 1 5.9342-2.4909c4.3864 0 7.9566 3.981 7.9566 8.8737v.1393z"/>
</svg>
