<svg xmlns="http://www.w3.org/2000/svg" viewBox="0 0 24 24" fill="#DC382D">
  <path d="M10.5 2.661l.54.997-1.797.644 2.409.218.748 1.246c.783-.15 1.813-.272 2.976-.313a27.16 27.16 0 0 1 3.286.132l.69-1.187 2.452-.248-1.848-.688.528-.964L17.42 1.04l-.555.982-1.74-.629-2.499.216L11.97.841l-3.06 1.016.59 1.005zM24 8.336c-.055.705-.936 1.193-2.432 1.466-.661.12-1.48.19-2.363.19-2.887 0-5.226-.577-5.226-1.289 0-.711 2.339-1.289 5.226-1.289.884 0 1.703.07 2.363.19C23.064 7.877 23.945 8.631 24 9.336zM0 10.155c.055.705.936 1.193 2.432 1.465.661.12 1.48.19 2.363.19 2.886 0 5.225-.577 5.225-1.289 0-.711-2.339-1.289-5.225-1.289-.884 0-1.703.07-2.363.19C.936 9.422.055 10.45 0 11.155zm16.674-1.018c-1.577-.264-3.514-.264-5.09 0-.316.053-.58.106-.801.159-.211.053-.395.105-.527.158-.211.106-.316.211-.316.316 0 .211.211.422.527.633.316.158.738.316 1.265.422.527.158 1.107.264 1.74.369a19.612 19.612 0 0 0 2.111.158 19.615 19.615 0 0 0 2.111-.158c.633-.105 1.213-.211 1.74-.369.527-.105.95-.264 1.265-.422.316-.211.527-.422.527-.633 0-.105-.105-.211-.316-.316a2.315 2.315 0 0 0-.527-.158 4.507 4.507 0 0 0-.801-.159zM4.795 11.384c-1.577-.264-3.514-.264-5.09 0-.316.053-.58.106-.801.159-.211.053-.395.105-.527.158-.211.106-.316.211-.316.316 0 .211.211.422.527.633.316.158.738.316 1.265.422.527.158 1.107.264 1.74.369.633.105 1.266.158 1.9.158s1.267-.053 1.9-.158c.633-.105 1.213-.211 1.74-.369.527-.105.95-.264 1.265-.422.316-.211.527-.422.527-.633 0-.105-.105-.211-.316-.316a2.315 2.315 0 0 0-.527-.158 4.507 4.507 0 0 0-.801-.159z"/>
</svg>
