<svg xmlns="http://www.w3.org/2000/svg" viewBox="0 0 24 24" fill="#6DB33F">
  <path d="M21.8537 1.4158a10.4504 10.4504 0 0 1-1.284 2.2471A11.9666 11.9666 0 1 0 3.8518 20.7757l.4445.3951a11.9543 11.9543 0 0 0 19.6316-8.2971c.3457-1.9335.2889-3.9189-.1852-5.8344-.1235-.5135-.2913-1.0185-.5107-1.5088-.2175-.4845-.4985-.9383-.8187-1.3604-.1634-.2204-.3382-.4305-.5232-.6352zM18.234 6.1476c-.1234-.1234-.2691-.2347-.4213-.3337a11.7736 11.7736 0 0 0-3.0817-1.6235 10.5086 10.5086 0 0 1 3.5031 1.9572z"/>
</svg>
