<svg xmlns="http://www.w3.org/2000/svg" viewBox="0 0 24 24" fill="#FA7343">
  <path d="M7.508 0c-.287 0-.573 0-.86.002-.241.002-.483.003-.724.01-.132.003-.263.009-.395.015A9.154 9.154 0 0 0 4.348.15a5.492 5.492 0 0 0-1.434.525C2.65.86 2.398 1.058 2.17 1.294A5.932 5.932 0 0 0 .836 2.73a5.543 5.543 0 0 0-.525 1.434A9.326 9.326 0 0 0 .15 5.343c-.006.132-.012.263-.015.395C.132 5.978.13 6.217.128 6.458.127 6.704.127 6.95.127 7.195v9.44c0 .245 0 .492.001.737.002.241.003.483.01.724.003.132.009.263.015.395.026.287.065.575.123 1.181.06.512.228.967.525 1.435.152.237.35.489.586.716.237.237.478.435.716.587.469.297.923.465 1.435.525.606.058.894.097 1.18.123.133.006.264.012.396.015.241.007.482.009.724.01.287.002.573.002.86.002h8.99c.288 0 .574 0 .861-.002.241-.001.483-.003.724-.01.132-.003.263-.009.395-.015.287-.026.575-.065 1.181-.123.511-.06.967-.228 1.435-.525.237-.152.489-.35.716-.586.236-.237.434-.479.586-.716.297-.469.465-.923.525-1.435.058-.606.097-.894.123-1.18.006-.133.012-.264.015-.396.007-.241.009-.483.01-.724.002-.287.002-.574.002-.861V7.508c0-.287 0-.573-.002-.86-.001-.241-.003-.483-.01-.724-.003-.132-.009-.263-.015-.395a9.154 9.154 0 0 0-.123-1.18 5.492 5.492 0 0 0-.525-1.435 5.932 5.932 0 0 0-1.302-1.302 5.543 5.543 0 0 0-1.434-.525A9.326 9.326 0 0 0 19.822.15c-.132-.006-.263-.012-.395-.015-.241-.007-.483-.009-.724-.01-.287-.002-.574-.002-.861-.002H7.508z"/>
</svg>
